<svg height="512pt" viewBox="0 -53 512 512" width="512pt" xmlns="http://www.w3.org/2000/svg"><path d="m329.144531 0s-27.425781 0-45.71875 8.828125c-18.289062 8.828125-27.425781 8.828125-27.425781 8.828125s-9.144531 0-27.425781-8.828125c-18.285157-8.828125-45.71875-8.828125-45.71875-8.828125-82.28125 0-182.855469 185.378906-182.855469 185.378906v8.828125l7.28125 14.0625c5.210938 10.054688 9.703125 20.417969 13.851562 30.921875 4.238282 10.707032 9.878907 20.886719 15.625 30.84375 11.484376 19.871094 23.578126 41.085938 37.878907 58.941406 32.996093 41.207032 83.675781 63.832032 134.761719 72.855469 18.792968 3.320313 37.933593 4.679688 57.007812 3.980469 52.464844-1.898438 108.484375-18.527344 148.648438-53.335938 8.394531-7.273437 16.085937-15.378906 22.777343-24.25 7.414063-9.832031 13.929688-20.515624 20.59375-30.84375 6.3125-9.78125 12.457031-19.683593 18.21875-29.800781 5.226563-9.171875 10.328125-18.546875 14.214844-28.382812 4.148437-10.503907 8.648437-20.867188 13.847656-30.921875l7.292969-14.070313v-8.828125s-100.574219-185.378906-182.855469-185.378906zm0 0" fill="#dd352e"/><path d="m306.230469 76.941406c-8.132813 3.011719-16.5625 5.128906-24.976563 7.230469l-16.425781 4.105469h-17.65625l-16.425781-4.105469c-8.414063-2.101563-16.84375-4.21875-24.976563-7.230469-95.742187-35.441406-205.769531 108.4375-205.769531 108.4375l28.523438 30.851563c11.09375 12.007812 21 25.019531 30.65625 38.207031 32.511718 44.375 82.28125 73.675781 137.570312 79.464844 33.589844 3.523437 59.25 1.546875 59.25 1.546875s25.660156 1.976562 59.242188-1.546875c55.285156-5.789063 105.058593-35.089844 137.570312-79.464844 9.65625-13.1875 19.558594-26.199219 30.65625-38.207031l28.53125-30.851563s-110.027344-143.878906-205.769531-108.4375zm0 0" fill="#6d1313"/><path d="m404.71875 259.292969 1.710938-1.140625c-100.269532-70.453125-150.429688-20.355469-150.429688-20.355469-86.652344-39.988281-138.046875-4.5-158.039062 15.28125l9.320312 6.214844c4.414062 2.9375-5.632812 18.070312-7.308594 23.101562l-2.871094 8.617188c3.101563-9.296875 25.328126-12.253907 34.429688-8.617188l13.082031 5.234375c8.113281 3.238282 12.457031 12.09375 10.054688 20.496094l-1.21875 4.285156c3.082031-10.773437 13.902343-17.375 24.894531-15.175781l5.09375 1.015625c11.042969 2.207031 18.519531 12.570312 17.117188 23.753906l.714843-5.695312c1.003907-8.074219 7.882813-25.546875 16.023438-25.546875l22.5625 15c8.914062 0 16.144531 7.230469 16.144531 16.144531 0-8.914062 7.230469-16.144531 16.144531-16.144531h22.5625c8.148438 0 15.019531 6.0625 16.023438 14.140625l.714843 5.695312c-1.394531-11.183594 6.074219-21.539062 17.117188-23.757812l5.09375-1.011719 23.667969 10.890625c-2.402344-8.394531 1.941406-17.25 10.054687-20.496094l13.089844-8.828125c9.101562-3.636719 31.328125-.679687 34.429688 8.617188l-2.871094-8.617188c-1.675782-5.03125-11.722656-20.164062-7.308594-23.101562zm0 0" fill="#991c1c"/><g fill="#e7eced"><path d="m333.65625 286.367188-5.09375 1.015624c-11.042969 2.207032-18.519531 12.570313-17.117188 23.753907l-.714843-5.683594c-1.003907-8.078125-7.875-14.144531-16.023438-14.144531h-22.5625c-8.914062 0-16.144531 7.230468-16.144531 16.148437 0-8.917969-7.230469-16.148437-16.144531-16.148437h-22.5625c-8.140625 0-15.019531 6.066406-16.023438 14.144531l-.714843 5.691406c1.394531-11.183593-6.074219-21.539062-17.117188-23.753906l-5.09375-1.015625c-10.980469-2.199219-21.8125 4.40625-24.894531 15.175781l1.21875-4.28125c2.402343-8.394531-1.941407-17.25-10.054688-20.5l-13.082031-5.234375c-9.101562-3.636718-19.386719 1.132813-22.492188 10.4375l2.867188-8.617187c1.679688-5.03125-.21875-10.566407-4.632812-13.507813l-13.992188-9.328125c-2.816406-1.871093-6.601562-1.226562-8.625 1.472657l-13.179688 17.566406c9.65625 10.777344 20.425782 20.425781 32.097657 28.796875 13.566406 9.726562 28.34375 17.734375 43.996093 23.738281 15.925782 6.105469 32.742188 10.175781 50.113282 11.90625h.011718c33.121094 3.371094 58.304688 1.449219 58.304688 1.449219s25.183594 1.921875 58.296875-1.457031h.007813c17.367187-1.730469 34.183593-5.800782 50.117187-11.910157l-5.871094-20.53125c-3.074219-10.769531-13.902343-17.375-24.894531-15.183593zm0 0"/><path d="m427.335938 251.992188c-2.03125-2.699219-5.820313-3.355469-8.625-1.472657l-13.992188 9.328125c-4.414062 2.941406-6.3125 8.476563-4.636719 13.507813l2.871094 8.617187c-3.097656-9.296875-13.390625-14.074218-22.484375-10.4375l-13.089844 5.234375c-8.105468 3.242188-12.457031 12.09375-10.054687 20.5l7.085937 24.824219c15.652344-6.003906 30.429688-14.003906 44-23.738281 11.667969-8.371094 22.4375-18.007813 32.09375-28.796875zm0 0"/><path d="m441.378906 114.757812c-13.578125-10.847656-24.894531-17.972656-40.675781-26.136718-19.183594-9.921875-39.511719-16.640625-59.886719-17.195313-11.589844-.320312-23.191406 1.296875-34.585937 5.515625-8.132813 3.011719-16.5625 5.128906-24.976563 7.230469l-16.425781 4.105469h-17.65625l-16.425781-4.105469c-8.414063-2.101563-16.84375-4.21875-24.976563-7.230469-11.394531-4.21875-22.996093-5.835937-34.585937-5.515625-20.375.554688-40.695313 7.261719-59.886719 17.195313-15.78125 8.164062-27.097656 15.289062-40.675781 26.136718-15.960938 12.5625-31.683594 27.472657-42.894532 39.082032l19.5625 24.441406c3.3125 4.140625 9.066407 5.402344 13.808594 3.039062l18.121094-9.066406c5.148438-2.578125 7.519531-8.617187 5.5-14l.160156-1.140625c3.363282 5.015625 9.578125 7.53125 15.109375 4.757813l15.160157-7.574219c4.976562-2.488281 7.679687-8.007813 6.59375-13.46875l-2.050782-10.222656c2.183594 10.855469 12.582032 18.023437 23.5 16.207031l14.824219-2.472656c10.484375-1.746094 17.910156-11.21875 17.089844-21.820313l-1.132813-14.644531c1.40625 18.253906 17.65625 31.707031 35.851563 29.683594l17.378906-1.929688c16.394531-1.839844 28.796875-15.699218 28.796875-32.1875 0 16.488282 12.402344 30.347656 28.796875 32.167969l17.378906 1.933594c18.195313 2.019531 34.4375-11.433594 35.851563-29.6875l-1.132813 14.644531c-.820312 10.601562 6.605469 20.074219 17.089844 21.820312l14.824219 2.472657c10.925781 1.820312 21.316406-5.347657 23.5-16.207031l-2.050782 10.222656c-1.09375 5.464844 1.609376 10.980468 6.59375 13.472656l15.160157 7.574219c6.355469 3.175781 13.609375-.601563 16.410156-7.132813l-1.140625 3.511719c-2.019531 5.386719.351562 11.433594 5.5 14l18.121094 9.066406c4.742187 2.375 10.496094 1.105469 13.808594-3.035156l19.5625-24.445313c-11.210938-11.589843-26.933594-26.5-42.894532-39.0625zm0 0"/><path d="m256 103.441406v-15.164062h-8.828125l-16.425781-4.105469c-8.414063-2.101563-16.84375-4.21875-24.976563-7.230469-11.394531-4.21875-22.996093-5.835937-34.585937-5.515625l2.800781 36.429688c1.402344 18.253906 17.652344 31.707031 35.847656 29.6875l17.382813-1.933594c16.382812-1.820313 28.785156-15.667969 28.785156-32.167969zm0 0"/></g><path d="m111.296875 88.621094 8.386719 41.957031c2.171875 10.867187 12.582031 18.042969 23.507812 16.226563l14.824219-2.472657c10.484375-1.75 17.910156-11.222656 17.089844-21.824219l-3.929688-51.082031c-20.367187.554688-40.695312 7.273438-59.878906 17.195313zm0 0" fill="#c2cbcc"/><path d="m83.578125 154.730469c2.800781 6.53125 10.054687 10.308593 16.410156 7.132812l15.160157-7.574219c4.976562-2.488281 7.679687-8.007812 6.59375-13.472656l-10.445313-52.195312c-15.78125 8.164062-27.097656 15.289062-40.675781 26.136718zm0 0" fill="#e7eced"/><path d="m79.21875 172.253906c5.148438-2.578125 7.519531-8.617187 5.5-14.011718l-14.097656-43.484376c-15.960938 12.5625-31.683594 27.472657-42.894532 39.082032l19.5625 24.441406c3.3125 4.140625 9.066407 5.402344 13.808594 3.039062zm0 0" fill="#c2cbcc"/><path d="m256 103.441406v-15.164062h8.828125l16.425781-4.105469c8.414063-2.101563 16.84375-4.21875 24.976563-7.230469 11.394531-4.21875 22.996093-5.835937 34.585937-5.515625l-2.800781 36.429688c-1.402344 18.253906-17.652344 31.707031-35.847656 29.6875l-17.382813-1.933594c-16.382812-1.820313-28.785156-15.667969-28.785156-32.167969zm0 0" fill="#c2cbcc"/><path d="m400.703125 88.621094-8.386719 41.957031c-2.171875 10.867187-12.582031 18.042969-23.507812 16.226563l-14.824219-2.472657c-10.484375-1.75-17.910156-11.222656-17.089844-21.824219l3.929688-51.082031c20.367187.554688 40.695312 7.273438 59.878906 17.195313zm0 0" fill="#e7eced"/><path d="m428.421875 154.730469c-2.800781 6.53125-10.054687 10.308593-16.410156 7.132812l-15.160157-7.574219c-4.976562-2.488281-7.679687-8.007812-6.59375-13.472656l10.445313-52.195312c15.78125 8.164062 27.097656 15.289062 40.675781 26.136718zm0 0" fill="#c2cbcc"/><path d="m432.78125 172.253906c-5.148438-2.578125-7.519531-8.617187-5.5-14.011718l14.097656-43.484376c15.960938 12.5625 31.683594 27.472657 42.894532 39.082032l-19.5625 24.441406c-3.3125 4.140625-9.066407 5.402344-13.808594 3.039062zm0 0" fill="#e7eced"/><path d="m201.269531 305.453125-3.566406 28.539063c33.113281 3.378906 58.296875 1.457031 58.296875 1.457031v-27.992188c0-8.917969-7.230469-16.148437-16.144531-16.148437h-22.5625c-8.148438 0-15.019531 6.066406-16.023438 14.144531zm0 0" fill="#e7eced"/><path d="m153.449219 301.550781-5.871094 20.53125c15.925781 6.109375 32.75 10.179688 50.117187 11.910157l.007813-.007813 2.859375-22.847656c1.394531-11.183594-6.074219-21.546875-17.117188-23.753907l-5.09375-1.015624c-10.988281-2.191407-21.828124 4.414062-24.902343 15.183593zm0 0" fill="#c2cbcc"/><path d="m147.578125 322.09375 7.089844-24.824219c2.402343-8.394531-1.941407-17.25-10.054688-20.5l-13.082031-5.234375c-9.101562-3.636718-19.386719 1.132813-22.484375 10.4375l-5.464844 16.382813c13.570313 9.726562 28.347657 17.726562 43.996094 23.738281zm0 0" fill="#e7eced"/><path d="m103.582031 298.355469 8.335938-25c1.675781-5.03125-.222657-10.566407-4.636719-13.507813l-13.992188-9.328125c-2.816406-1.871093-6.601562-1.226562-8.625 1.472657l-13.179687 17.566406c9.660156 10.789062 20.429687 20.425781 32.097656 28.796875zm0 0" fill="#c2cbcc"/><path d="m310.730469 305.453125 3.566406 28.539063c-33.113281 3.378906-58.296875 1.457031-58.296875 1.457031v-27.992188c0-8.917969 7.230469-16.148437 16.144531-16.148437h22.5625c8.148438 0 15.019531 6.066406 16.023438 14.144531zm0 0" fill="#c2cbcc"/><path d="m358.550781 301.550781 5.871094 20.53125c-15.925781 6.109375-32.75 10.179688-50.117187 11.910157 0 0 0 0-.007813-.007813l-2.859375-22.847656c-1.394531-11.183594 6.074219-21.546875 17.117188-23.753907l5.09375-1.015624c10.988281-2.191407 21.828124 4.414062 24.902343 15.183593zm0 0" fill="#e7eced"/><path d="m364.421875 322.09375-7.089844-24.824219c-2.402343-8.394531 1.941407-17.25 10.054688-20.5l13.082031-5.234375c9.101562-3.636718 19.386719 1.132813 22.484375 10.4375l5.464844 16.382813c-13.570313 9.726562-28.347657 17.726562-43.996094 23.738281zm0 0" fill="#c2cbcc"/><path d="m408.417969 298.355469-8.335938-25c-1.675781-5.03125.222657-10.566407 4.636719-13.507813l13.992188-9.328125c2.816406-1.871093 6.601562-1.226562 8.625 1.472657l13.179687 17.566406c-9.660156 10.789062-20.429687 20.425781-32.097656 28.796875zm0 0" fill="#e7eced"/><path d="m245.820312 233.523438 20.765626 27.765624c1.738281 2.320313 4.386718 3.539063 7.078124 3.539063 1.835938 0 3.691407-.566406 5.277344-1.757813 3.902344-2.921874 4.707032-8.449218 1.785156-12.347656l-14.882812-19.890625c-6.542969 3.691407-9.84375 6.964844-9.84375 6.964844-3.476562-1.605469-6.804688-2.902344-10.179688-4.273437zm0 0" fill="#dd352e"/></svg>