<?xml version="1.0" encoding="iso-8859-1"?>
<!-- Generator: Adobe Illustrator 19.0.0, SVG Export Plug-In . SVG Version: 6.00 Build 0)  -->
<svg version="1.1" id="Capa_1" xmlns="http://www.w3.org/2000/svg" xmlns:xlink="http://www.w3.org/1999/xlink" x="0px" y="0px"
	 viewBox="0 0 436.145 436.145" style="enable-background:new 0 0 436.145 436.145;" xml:space="preserve">
<g>
	<g>
		<path d="M373.706,142.327l-12.068,6.386c22.864,43.204,21.939,94.249-2.471,136.54c-1.051,1.818-2.144,3.611-3.248,5.357
			l11.537,7.301c1.2-1.898,2.384-3.847,3.533-5.827C397.766,245.693,398.783,189.709,373.706,142.327z"/>
	</g>
</g>
<g>
	<g>
		<path d="M253.853,354.759c-30.435,3.674-60.607-2.516-87.26-17.903c-35.208-20.323-59.928-54.874-67.82-94.797l-13.394,2.647
			c8.655,43.786,35.768,81.683,74.387,103.974c23.752,13.713,50.053,20.765,76.993,20.765c6.216,0,12.469-0.375,18.731-1.131
			L253.853,354.759z"/>
	</g>
</g>
<g>
	<g>
		<path d="M116.322,118.167l10.672,8.515c33.253-41.677,88.414-61.14,140.532-49.584l2.954-13.331
			C213.311,51.092,152.801,72.445,116.322,118.167z"/>
	</g>
</g>
<g>
	<g>
		<path d="M339.661,170.683l-12.547,5.383c12.32,28.725,10.44,60.692-5.161,87.709l11.824,6.827
			C351.551,239.822,353.697,203.403,339.661,170.683z"/>
	</g>
</g>
<g>
	<g>
		<path d="M243.192,312.597c-19.267,1.215-38.325-3.261-55.115-12.954c-21.854-12.617-37.827-32.894-44.978-57.093l-13.094,3.869
			c8.146,27.573,26.346,50.674,51.244,65.05c17.072,9.856,36.204,14.979,55.731,14.979c2.352,0,4.712-0.073,7.072-0.225
			L243.192,312.597z"/>
	</g>
</g>
<g>
	<g>
		<path d="M155.908,138.062l9.931,9.37c21.576-22.868,53.103-34.01,84.333-29.805l1.821-13.532
			C216.412,99.303,180.494,112.001,155.908,138.062z"/>
	</g>
</g>
<g>
	<g>
		<path d="M381.601,95.897c-4.82-17.983-16.353-33.014-32.478-42.322c-33.285-19.217-75.996-7.774-95.211,25.508
			c-9.31,16.128-11.783,34.913-6.965,52.893c4.818,17.981,16.353,33.01,32.48,42.318c10.742,6.202,22.663,9.37,34.743,9.37
			c6.052,0,12.145-0.795,18.147-2.405c17.983-4.816,33.014-16.348,42.324-32.473C383.947,132.663,386.42,113.88,381.601,95.897z
			 M362.815,141.96c-7.485,12.966-19.572,22.238-34.033,26.112c-14.461,3.874-29.563,1.884-42.53-5.603
			c-12.967-7.485-22.243-19.57-26.117-34.028c-3.874-14.457-1.884-29.563,5.601-42.532c10.37-17.959,29.242-28.008,48.628-28.008
			c9.501,0,19.128,2.417,27.933,7.497c12.966,7.485,22.24,19.572,26.115,34.033C372.289,113.892,370.301,128.996,362.815,141.96z"/>
	</g>
</g>
<g>
	<g>
		<path d="M331.868,83.471c-8.141-4.7-17.621-5.949-26.697-3.517c-9.078,2.432-16.664,8.253-21.362,16.393
			c-4.7,8.136-5.949,17.618-3.517,26.696c2.432,9.079,8.255,16.667,16.393,21.366c5.524,3.191,11.564,4.707,17.529,4.707
			c12.167,0,24.018-6.31,30.532-17.585C354.444,114.728,348.669,93.169,331.868,83.471z M332.92,124.704
			c-5.939,10.281-19.132,13.817-29.409,7.881c-4.982-2.876-8.544-7.52-10.032-13.075c-1.488-5.555-0.724-11.356,2.152-16.335
			c2.876-4.982,7.518-8.544,13.071-10.032c1.853-0.497,3.736-0.742,5.605-0.742c3.732,0,7.415,0.978,10.733,2.896
			C335.319,101.232,338.854,114.424,332.92,124.704z"/>
	</g>
</g>
<g>
	<g>
		<path d="M373.439,306.179c-4.818-17.983-16.352-33.012-32.476-42.322c-33.283-19.214-75.994-7.77-95.212,25.515
			c-9.31,16.123-11.783,34.906-6.963,52.89c4.82,17.983,16.352,33.014,32.476,42.322c10.742,6.202,22.661,9.37,34.741,9.37
			c6.052,0,12.148-0.797,18.149-2.405c17.985-4.818,33.014-16.353,42.322-32.48C375.786,342.945,378.259,324.162,373.439,306.179z
			 M354.651,352.243c-7.484,12.967-19.569,22.243-34.029,26.117c-14.459,3.872-29.565,1.884-42.53-5.601
			c-12.966-7.485-22.24-19.57-26.115-34.031c-3.874-14.461-1.886-29.565,5.6-42.53c10.371-17.963,29.245-28.013,48.633-28.013
			c9.501,0,19.127,2.415,27.926,7.496c12.966,7.487,22.24,19.572,26.115,34.033C364.126,324.174,362.138,339.278,354.651,352.243z"
			/>
	</g>
</g>
<g>
	<g>
		<path d="M340.098,315.118c-2.432-9.079-8.255-16.666-16.394-21.364c-8.139-4.7-17.62-5.949-26.696-3.516
			c-9.078,2.43-16.664,8.253-21.362,16.393c-9.699,16.8-3.922,38.359,12.878,48.058c5.526,3.19,11.566,4.705,17.531,4.705
			c12.17,0,24.02-6.31,30.527-17.58C341.282,333.676,342.53,324.198,340.098,315.118z M324.758,334.984
			c-5.936,10.279-19.128,13.812-29.409,7.88c-10.279-5.934-13.814-19.127-7.88-29.408c2.876-4.982,7.518-8.544,13.071-10.032
			c1.853-0.497,3.736-0.742,5.605-0.742c3.731,0,7.414,0.98,10.732,2.894c4.98,2.874,8.544,7.518,10.032,13.073
			C328.397,324.204,327.634,330.005,324.758,334.984z"/>
	</g>
</g>
<g>
	<g>
		<path d="M181.724,167.027c-4.82-17.983-16.353-33.014-32.476-42.322c-33.283-19.215-75.996-7.772-95.213,25.513
			c-19.215,33.285-7.769,75.996,25.515,95.213c10.95,6.321,22.912,9.325,34.731,9.323c24.105-0.003,47.585-12.505,60.483-34.838
			C184.071,203.794,186.544,185.01,181.724,167.027z M162.937,213.09c-15.454,26.764-49.797,35.968-76.561,20.516
			c-26.764-15.452-35.968-49.797-20.518-76.561c10.37-17.961,29.247-28.013,48.633-28.013c9.503,0,19.127,2.415,27.928,7.499
			c12.966,7.485,22.24,19.572,26.115,34.031C172.411,185.021,170.423,200.125,162.937,213.09z"/>
	</g>
</g>
<g>
	<g>
		<path d="M148.385,175.962c-2.432-9.078-8.253-16.664-16.394-21.362c-16.8-9.699-38.361-3.922-48.06,12.878
			c-4.7,8.141-5.948,17.621-3.516,26.697c2.432,9.076,8.255,16.662,16.394,21.361c5.526,3.19,11.566,4.705,17.531,4.705
			c12.169,0,24.018-6.31,30.529-17.582C149.567,194.518,150.817,185.038,148.385,175.962z M133.042,195.832
			c-5.936,10.281-19.128,13.815-29.409,7.88c-4.982-2.874-8.544-7.516-10.032-13.07c-1.488-5.555-0.724-11.356,2.152-16.338
			c3.983-6.9,11.235-10.761,18.681-10.761c3.651,0,7.347,0.928,10.728,2.881c4.982,2.874,8.544,7.516,10.032,13.07
			C136.682,185.05,135.917,190.851,133.042,195.832z"/>
	</g>
</g>
<g>
	<g>
		<path d="M413.421,347.309c-3.644-0.975-7.383,1.191-8.356,4.835c-7.212,27.013-24.375,50.07-51.009,68.528
			c-3.099,2.147-3.871,6.4-1.724,9.499c1.326,1.913,3.454,2.939,5.618,2.939c1.341,0,2.695-0.394,3.881-1.217
			c29.37-20.354,48.353-46,56.424-76.228C419.229,352.023,417.065,348.282,413.421,347.309z"/>
	</g>
</g>
<g>
	<g>
		<path d="M430.007,388.267c-3.642-0.969-7.383,1.196-8.354,4.838c-3.232,12.128-10.68,22.096-22.769,30.481
			c-3.098,2.149-3.867,6.402-1.719,9.499c1.326,1.911,3.454,2.937,5.617,2.937c1.341,0,2.698-0.396,3.883-1.219
			c14.655-10.165,24.136-23.011,28.18-38.183C435.816,392.978,433.651,389.239,430.007,388.267z"/>
	</g>
</g>
<g>
	<g>
		<path d="M91.549,76.48c-1.271-3.55-5.18-5.395-8.73-4.122C48.388,84.708,22.83,105.031,6.856,132.764
			c-1.883,3.268-0.76,7.441,2.507,9.324c1.073,0.62,2.246,0.913,3.401,0.913c2.36,0,4.657-1.227,5.92-3.422
			c14.314-24.851,37.443-43.145,68.743-54.369C90.978,83.938,92.822,80.028,91.549,76.48z"/>
	</g>
</g>
<g>
	<g>
		<path d="M47.952,61.714c-1.273-3.548-5.181-5.393-8.731-4.12C22.071,63.748,9.312,73.92,1.299,87.829
			c-1.882,3.268-0.759,7.441,2.507,9.323c1.074,0.62,2.246,0.913,3.401,0.913c2.36,0,4.657-1.225,5.92-3.42
			c6.443-11.182,16.486-19.098,30.705-24.201C47.382,69.172,49.226,65.262,47.952,61.714z"/>
	</g>
</g>
<g>
	<g>
		<path d="M152.899,401.73c-34.601-9.238-64.119-31.194-87.738-65.261c-2.149-3.098-6.402-3.867-9.499-1.72s-3.869,6.402-1.72,9.499
			c25.515,36.799,57.624,60.576,95.439,70.673c0.59,0.157,1.181,0.232,1.765,0.232c3.017,0,5.777-2.016,6.589-5.067
			C158.707,406.444,156.543,402.703,152.899,401.73z"/>
	</g>
</g>
<g>
	<g>
		<path d="M101.072,422.722c-15.79-4.219-28.739-13.879-39.586-29.527c-2.147-3.099-6.402-3.869-9.499-1.722
			c-3.099,2.147-3.871,6.4-1.722,9.499c12.59,18.164,28.498,29.92,47.281,34.939c0.591,0.159,1.183,0.234,1.766,0.234
			c3.016,0,5.775-2.014,6.593-5.065C106.879,427.437,104.714,423.695,101.072,422.722z"/>
	</g>
</g>
<g>
	<g>
		<path d="M420.944,80.562c-12.066-33.642-31.928-58.614-59.035-74.223c-3.265-1.882-7.439-0.758-9.322,2.509
			c-1.882,3.267-0.758,7.441,2.509,9.322c24.223,13.949,42.052,36.492,52.995,67c0.998,2.789,3.625,4.524,6.426,4.524
			c0.765,0,1.543-0.13,2.306-0.403C420.373,88.02,422.218,84.111,420.944,80.562z"/>
	</g>
</g>
<g>
	<g>
		<path d="M435.356,38.015c-6.014-16.771-15.968-29.254-29.583-37.101c-3.267-1.884-7.441-0.761-9.323,2.505
			s-0.761,7.441,2.505,9.324c10.885,6.272,18.589,16.048,23.549,29.88c0.998,2.789,3.625,4.524,6.426,4.524
			c0.765,0,1.543-0.13,2.306-0.403C434.784,45.473,436.629,41.563,435.356,38.015z"/>
	</g>
</g>
<g>
</g>
<g>
</g>
<g>
</g>
<g>
</g>
<g>
</g>
<g>
</g>
<g>
</g>
<g>
</g>
<g>
</g>
<g>
</g>
<g>
</g>
<g>
</g>
<g>
</g>
<g>
</g>
<g>
</g>
</svg>
